<svg width="115" height="36" viewBox="0 0 115 36" fill="none" xmlns="http://www.w3.org/2000/svg">
<line x1="83.0226" y1="7.60799" x2="79.1169" y2="3.77967" stroke="black"/>
<ellipse rx="0.974971" ry="1.27965" transform="matrix(-1 0 0 1 87.025 1.27965)" fill="black"/>
<ellipse rx="0.974971" ry="1.27965" transform="matrix(-1 0 0 1 78.975 3.72435)" fill="black"/>
<line y1="-0.5" x2="7.17016" y2="-0.5" transform="matrix(0.605172 -0.796095 -0.685975 -0.727625 81.9669 7.45758)" stroke="black"/>
<path d="M1.19851 23V12.0909H5.087C5.93572 12.0909 6.63885 12.2454 7.19638 12.5543C7.75391 12.8633 8.17116 13.2859 8.44815 13.8221C8.72514 14.3548 8.86364 14.9549 8.86364 15.6225C8.86364 16.2937 8.72337 16.8974 8.44283 17.4336C8.16584 17.9663 7.7468 18.3888 7.18572 18.7013C6.6282 19.0103 5.92685 19.1648 5.08168 19.1648H2.40767V17.7692H4.93253C5.46875 17.7692 5.90376 17.6768 6.23757 17.4922C6.57138 17.304 6.81641 17.0483 6.97266 16.7251C7.12891 16.402 7.20703 16.0344 7.20703 15.6225C7.20703 15.2106 7.12891 14.8448 6.97266 14.5252C6.81641 14.2056 6.5696 13.9553 6.23224 13.7741C5.89844 13.593 5.4581 13.5025 4.91122 13.5025H2.84446V23H1.19851ZM20.2694 17.5455C20.2694 18.7102 20.0564 19.7116 19.6302 20.5497C19.2041 21.3842 18.6199 22.027 17.8778 22.478C17.1391 22.9254 16.2993 23.1491 15.3582 23.1491C14.4136 23.1491 13.5702 22.9254 12.828 22.478C12.0894 22.027 11.507 21.3825 11.0809 20.5444C10.6547 19.7063 10.4417 18.7067 10.4417 17.5455C10.4417 16.3807 10.6547 15.381 11.0809 14.5465C11.507 13.7085 12.0894 13.0657 12.828 12.6183C13.5702 12.1673 14.4136 11.9418 15.3582 11.9418C16.2993 11.9418 17.1391 12.1673 17.8778 12.6183C18.6199 13.0657 19.2041 13.7085 19.6302 14.5465C20.0564 15.381 20.2694 16.3807 20.2694 17.5455ZM18.6395 17.5455C18.6395 16.6577 18.4957 15.9102 18.208 15.3029C17.9239 14.6921 17.5333 14.2305 17.0361 13.918C16.5425 13.6019 15.9832 13.4439 15.3582 13.4439C14.7297 13.4439 14.1686 13.6019 13.675 13.918C13.1814 14.2305 12.7907 14.6921 12.5031 15.3029C12.219 15.9102 12.077 16.6577 12.077 17.5455C12.077 18.4332 12.219 19.1825 12.5031 19.7933C12.7907 20.4006 13.1814 20.8622 13.675 21.1783C14.1686 21.4908 14.7297 21.647 15.3582 21.647C15.9832 21.647 16.5425 21.4908 17.0361 21.1783C17.5333 20.8622 17.9239 20.4006 18.208 19.7933C18.4957 19.1825 18.6395 18.4332 18.6395 17.5455ZM22.3216 23V12.0909H26.21C27.0552 12.0909 27.7566 12.2365 28.3141 12.5277C28.8752 12.8189 29.2942 13.2219 29.5712 13.7369C29.8482 14.2482 29.9867 14.8395 29.9867 15.5107C29.9867 16.1783 29.8464 16.766 29.5659 17.2738C29.2889 17.7781 28.8699 18.1705 28.3088 18.451C27.7512 18.7315 27.0499 18.8718 26.2047 18.8718H23.2591V17.4549H26.0556C26.5882 17.4549 27.0215 17.3786 27.3553 17.2259C27.6926 17.0732 27.9395 16.8512 28.0957 16.56C28.252 16.2688 28.3301 15.919 28.3301 15.5107C28.3301 15.0987 28.2502 14.7418 28.0904 14.44C27.9341 14.1381 27.6873 13.9073 27.35 13.7475C27.0162 13.5842 26.5776 13.5025 26.0343 13.5025H23.9675V23H22.3216ZM27.7069 18.0781L30.4022 23H28.5272L25.8851 18.0781H27.7069ZM39.0048 12.0909H40.6561V19.266C40.6561 20.0295 40.4767 20.706 40.1181 21.2955C39.7594 21.8814 39.2551 22.343 38.6053 22.6804C37.9554 23.0142 37.1937 23.1811 36.3201 23.1811C35.4501 23.1811 34.6902 23.0142 34.0403 22.6804C33.3904 22.343 32.8862 21.8814 32.5275 21.2955C32.1689 20.706 31.9895 20.0295 31.9895 19.266V12.0909H33.6355V19.1328C33.6355 19.6264 33.7438 20.065 33.9604 20.4485C34.1806 20.832 34.4913 21.1339 34.8926 21.354C35.2939 21.5707 35.7697 21.679 36.3201 21.679C36.8741 21.679 37.3517 21.5707 37.753 21.354C38.1578 21.1339 38.4668 20.832 38.6799 20.4485C38.8965 20.065 39.0048 19.6264 39.0048 19.1328V12.0909ZM52.1098 15.6385H50.4479C50.384 15.2834 50.265 14.9709 50.091 14.701C49.917 14.4311 49.7039 14.2021 49.4518 14.0138C49.1997 13.8256 48.9173 13.6836 48.6048 13.5877C48.2959 13.4918 47.9674 13.4439 47.6194 13.4439C46.9909 13.4439 46.428 13.6019 45.9308 13.918C45.4372 14.234 45.0466 14.6974 44.759 15.3082C44.4749 15.919 44.3328 16.6648 44.3328 17.5455C44.3328 18.4332 44.4749 19.1825 44.759 19.7933C45.0466 20.4041 45.439 20.8658 45.9362 21.1783C46.4333 21.4908 46.9926 21.647 47.6141 21.647C47.9585 21.647 48.2852 21.6009 48.5942 21.5085C48.9067 21.4126 49.189 21.2724 49.4411 21.0877C49.6933 20.9031 49.9063 20.6776 50.0803 20.4112C50.2579 20.1413 50.3804 19.8324 50.4479 19.4844L52.1098 19.4897C52.021 20.0259 51.8488 20.5195 51.5931 20.9705C51.341 21.418 51.0161 21.805 50.6183 22.1317C50.2242 22.4549 49.7732 22.7053 49.2654 22.8828C48.7575 23.0604 48.2036 23.1491 47.6034 23.1491C46.6588 23.1491 45.8172 22.9254 45.0786 22.478C44.3399 22.027 43.7575 21.3825 43.3314 20.5444C42.9088 19.7063 42.6975 18.7067 42.6975 17.5455C42.6975 16.3807 42.9106 15.381 43.3367 14.5465C43.7629 13.7085 44.3453 13.0657 45.0839 12.6183C45.8225 12.1673 46.6624 11.9418 47.6034 11.9418C48.1823 11.9418 48.722 12.0252 49.2227 12.1921C49.727 12.3555 50.1798 12.5969 50.5811 12.9165C50.9823 13.2326 51.3144 13.6197 51.5771 14.0778C51.8399 14.5323 52.0175 15.0526 52.1098 15.6385ZM54.0794 23V12.0909H55.7253V16.8317H61.1639V12.0909H62.8152V23H61.1639V18.2433H55.7253V23H54.0794ZM72.6136 13.5078V12.0909H81.0565V13.5078H77.6527V23H76.0121V13.5078H72.6136ZM83.8756 12.0909L86.9118 20.9759H87.0344L90.0706 12.0909H91.8497L87.9239 23H86.0223L82.0965 12.0909H83.8756Z" fill="black"/>
<rect x="69" y="8" width="26" height="20" rx="7" stroke="black" stroke-width="2"/>
</svg>
